<svg width="25" height="25" viewBox="0 0 25 25" fill="none" xmlns="http://www.w3.org/2000/svg">
<g clip-path="url(#clip0_1389_2265)">
<path d="M18.1006 0H6.89891C3.09485 0 0 3.095 0 6.89906V18.1008C0 21.905 3.09485 24.9999 6.89891 24.9999H18.1006C21.905 24.9999 24.9999 21.9049 24.9999 18.1008V6.89906C25 3.095 21.905 0 18.1006 0ZM22.7819 18.1008C22.7819 20.6819 20.6819 22.7817 18.1008 22.7817H6.89891C4.31792 22.7819 2.21811 20.6819 2.21811 18.1008V6.89906C2.21811 4.31806 4.31792 2.21811 6.89891 2.21811H18.1006C20.6818 2.21811 22.7817 4.31806 22.7817 6.89906V18.1008H22.7819Z" fill="white"/>
<path d="M12.4999 6.05841C8.94786 6.05841 6.05811 8.94816 6.05811 12.5002C6.05811 16.0522 8.94786 18.9418 12.4999 18.9418C16.052 18.9418 18.9418 16.0522 18.9418 12.5002C18.9418 8.94816 16.052 6.05841 12.4999 6.05841ZM12.4999 16.7235C10.1711 16.7235 8.27621 14.829 8.27621 12.5001C8.27621 10.1711 10.1709 8.27637 12.4999 8.27637C14.8289 8.27637 16.7237 10.1711 16.7237 12.5001C16.7237 14.829 14.8288 16.7235 12.4999 16.7235Z" fill="white"/>
<path d="M19.2119 4.17761C18.7846 4.17761 18.3648 4.35062 18.063 4.65377C17.7597 4.95543 17.5853 5.37539 17.5853 5.80422C17.5853 6.23173 17.7598 6.65154 18.063 6.95468C18.3646 7.25635 18.7846 7.43084 19.2119 7.43084C19.6408 7.43084 20.0593 7.25635 20.3624 6.95468C20.6655 6.65154 20.8386 6.23158 20.8386 5.80422C20.8386 5.37539 20.6655 4.95543 20.3624 4.65377C20.0607 4.35062 19.6408 4.17761 19.2119 4.17761Z" fill="white"/>
</g>
<defs>
<clipPath id="clip0_1389_2265">
<rect width="25" height="25" fill="white"/>
</clipPath>
</defs>
</svg>
