<svg width="19" height="19" viewBox="0 0 19 19" fill="none" xmlns="http://www.w3.org/2000/svg">
<path d="M1 9.5C1 14.1944 4.84049 18 9.57798 18C14.3154 18 18.156 14.1944 18.156 9.5C18.156 4.80558 14.3154 1 9.57798 1C4.84049 1 1 4.80558 1 9.5Z" stroke="white" stroke-width="1.2" stroke-linecap="round" stroke-linejoin="round"/>
<path d="M10.4358 1.04199C10.4358 1.04199 13.0092 4.40002 13.0092 9.49999C13.0092 14.6 10.4358 17.9581 10.4358 17.9581" stroke="white" stroke-width="1.2" stroke-linecap="round" stroke-linejoin="round"/>
<path d="M8.72012 17.9581C8.72012 17.9581 6.14673 14.6 6.14673 9.49999C6.14673 4.40002 8.72012 1.04199 8.72012 1.04199" stroke="white" stroke-width="1.2" stroke-linecap="round" stroke-linejoin="round"/>
<path d="M1.54004 12.4749H17.6158" stroke="white" stroke-width="1.2" stroke-linecap="round" stroke-linejoin="round"/>
<path d="M1.54004 6.5249H17.6158" stroke="white" stroke-width="1.2" stroke-linecap="round" stroke-linejoin="round"/>
</svg>
