<svg width="31" height="31" viewBox="0 0 31 31" fill="none" xmlns="http://www.w3.org/2000/svg">
<path d="M15.4996 3.04962C8.62783 3.04962 3.05664 8.62402 3.05664 15.4998C3.05664 22.3758 8.62762 27.9504 15.4996 27.9504C22.3719 27.9504 27.9433 22.3758 27.9433 15.4998C27.943 8.62402 22.3719 3.04962 15.4996 3.04962ZM10.3364 8.66493C11.1828 8.66493 11.8693 9.29139 11.8693 10.0642C11.8693 10.8371 11.1828 11.4635 10.3364 11.4635C9.48952 11.4635 8.8034 10.8371 8.8034 10.0642C8.8034 9.29139 9.48952 8.66493 10.3364 8.66493ZM11.881 20.6333H8.85202V12.7251H11.881V20.6333ZM22.1735 20.6333H19.1299V16.2847C19.1299 15.7883 19.0378 15.4369 18.8543 15.2307C18.6706 15.0249 18.4126 14.9215 18.0806 14.9215C17.7133 14.9215 17.4154 15.0606 17.1873 15.3388C16.959 15.6169 16.8452 16.1157 16.8452 16.8356V20.6333H13.816V12.7251H16.6365V14.0131C17.058 13.4871 17.4849 13.1111 17.9165 12.885C18.348 12.6592 18.8737 12.5464 19.494 12.5464C20.3326 12.5464 20.9886 12.7957 21.4626 13.2947C21.9362 13.7935 22.1733 14.5642 22.1733 15.6068L22.1735 20.6333Z" fill="white"/>
</svg>
