<svg xmlns="http://www.w3.org/2000/svg" viewBox="0 0 944.83 348.13"><defs><style>.cls-1{fill:#fff;}</style></defs><g id="Слой_2" data-name="Слой 2"><g id="Слой_2-2" data-name="Слой 2"><path class="cls-1" d="M56.13.42C80.85.42,95.64.21,107,20.85c4.66,8.42,5.68,25,.41,34.32-12.56,21.89-38.5,22.1-56.94,22.1H40.73v67.8h17v4.64H0v-4.64H17V5.26H0V.42ZM48.43,72c15.19,0,26.74,1.26,33.83-10.53,4.66-8.21,4.06-38.11,0-46.32C76.59,3.79,66.66,5.26,47,5.26H40.73V72Z"/><path class="cls-1" d="M180.74,73.06c11.55,13.27,14.18,30.74,11.55,43.8-3,15-11.35,25.9-27.15,32.42A40.56,40.56,0,0,1,126.23,144c-15.4-11.37-19-27-18.64-40.64.21-9.89,5.88-28.21,20.27-37.48A46.43,46.43,0,0,1,142.24,60C151.36,58.32,169.6,60.22,180.74,73.06Zm-50.05,43.8c0,10.32-1.21,22.11,8.72,28.21,6.48,4,16.21,3.37,22.08,0,10.54-6.31,9.32-17.89,9.32-29.9V95.8c0-10.52,1.22-22.53-8.51-28.84-5.88-3.79-15.6-3.58-20.46-1.48C129.48,71,130.69,86.54,130.69,95.8Z"/><path class="cls-1" d="M236.46,0V145.07h14.79v4.64H201.61v-4.64h15V4.63h-15V0Z"/><path class="cls-1" d="M295,0V145.07h14.79v4.64H260.17v-4.64h15V4.63h-15V0Z"/><path class="cls-1" d="M353.78,61.9v83.17h12.76v4.64H321v-4.64h13V66.54H321V61.9ZM343,3.58c6.48,0,11.75,5.68,11.75,12.21a12,12,0,0,1-11.75,12c-6.28,0-11.55-5.47-11.55-12S336.76,3.58,343,3.58Z"/><path class="cls-1" d="M480.82,145.07v4.64H435.44v-4.64H448.2V92.85c0-11.15,1-21.26-6.89-25.68-3.85-2.11-11.14-1.69-15.8,1.26-14,8.63-12.77,20.85-12.77,37.48v39.16h12.77v4.64H379.92v-4.64h13V66.54h-13V61.9h32.82V75c12.56-15.79,25.53-18.32,38.09-13.27,18.24,7,17.23,28.64,17.23,41.9v41.48Z"/><path class="cls-1" d="M573.75,144.23c-7.9,6.74-13,8.84-21.28,7.37-7.29-1.26-11.14-7.79-12.15-17.69C534.44,145.7,526.74,151,515.6,152c-5.88.42-15.81-.84-21.48-8.63-4.26-5.48-4.86-13.9-2.63-20.64,4.25-11.37,14.38-17,25.12-19.79,12-2.95,16.21-2.73,23.71-2.73,0-12.64.81-31-5.27-35-4.46-2.95-13.37-2.73-18.85-.21-3.44,1.69-6.07,4-6.28,6.53,0,.63,2.64,5.26,2.84,5.89,1,2.32,1.42,4.43,1,5.9a9,9,0,0,1-5.87,7.37c-2.84,1-6.28.84-8.51-1-2.43-2.11-3.65-6.11-3-10.32,1.42-8,7.7-13.9,16.41-17.48,9.12-3.79,31.2-2.94,39.51,3.16,9.12,6.74,7.9,16.85,7.9,29.69V140c0,7.37,5.27,6.74,11.76,1.47Zm-64.84-14.95c.41,5.06,2.84,9.69,7.09,11.79,3.65,1.9,10.54,1.27,14.79-1.47,10.74-7.37,9.53-20.42,9.53-31.79v-3c-8.72,0-17.83,1.47-22.9,5.26A23.38,23.38,0,0,0,508.91,129.28Z"/><path class="cls-1" d="M635.11.42l32,109.49L699.14.42h42.35V5.26H724.67V145.07h16.82v4.64H683.94v-4.64h17V10.53L660.64,149.71h-4.86L614.24,10.32V145.07h17v4.64H590.94v-4.64h17V5.26h-17V.42Z"/><path class="cls-1" d="M836.11,144.23c-7.9,6.74-13,8.84-21.27,7.37-7.3-1.26-11.15-7.79-12.16-17.69C796.81,145.7,789.11,151,778,152c-5.87.42-15.8-.84-21.48-8.63-4.25-5.48-4.86-13.9-2.63-20.64,4.26-11.37,14.39-17,25.13-19.79,11.95-2.95,16.21-2.73,23.7-2.73,0-12.64.81-31-5.27-35-4.45-2.95-13.37-2.73-18.84-.21-3.44,1.69-6.08,4-6.28,6.53,0,.63,2.63,5.26,2.84,5.89,1,2.32,1.41,4.43,1,5.9a9,9,0,0,1-5.88,7.37c-2.83,1-6.28.84-8.51-1-2.43-2.11-3.64-6.11-3-10.32,1.42-8,7.7-13.9,16.42-17.48,9.11-3.79,31.2-2.94,39.51,3.16,9.11,6.74,7.9,16.85,7.9,29.69V140c0,7.37,5.27,6.74,11.75,1.47Zm-64.83-14.95c.4,5.06,2.83,9.69,7.09,11.79,3.64,1.9,10.53,1.27,14.79-1.47,10.74-7.37,9.52-20.42,9.52-31.79v-3c-8.71,0-17.83,1.47-22.89,5.26A23.35,23.35,0,0,0,771.28,129.28Z"/><path class="cls-1" d="M878.17,0V145.07h14.39v4.64H843.73v-4.64h14.58V4.63h-15V0Zm59.17,61.9v4.64h-14L896.21,93.28l39.3,51.79h9.32v4.64H900.26v-4.64h9.93l-30-42.74,34-35.79h-19V61.9Z"/><path class="cls-1" d="M239,330.64a17.78,17.78,0,0,1-9.79-2.76,21.61,21.61,0,0,1-6.85-6.84v26.22h-5.72V287.35h5.13v8.3a19.82,19.82,0,0,1,7-6.47,18.57,18.57,0,0,1,9.33-2.48,18.83,18.83,0,0,1,8.32,1.83,21.07,21.07,0,0,1,6.56,4.92,23.22,23.22,0,0,1,4.33,7,22.26,22.26,0,0,1,1.55,8.18,24.31,24.31,0,0,1-2.48,10.94,20.39,20.39,0,0,1-6.93,8A18.13,18.13,0,0,1,239,330.64Zm-1.6-4.91a14.28,14.28,0,0,0,6.47-1.42,15.28,15.28,0,0,0,4.92-3.86A17.68,17.68,0,0,0,252,315a18.47,18.47,0,0,0,1.09-6.3,17.38,17.38,0,0,0-1.22-6.5,16.59,16.59,0,0,0-3.48-5.45,17.59,17.59,0,0,0-5.21-3.73,14.88,14.88,0,0,0-6.39-1.38,13.92,13.92,0,0,0-4.54.81,18.11,18.11,0,0,0-4.5,2.31,15.8,15.8,0,0,0-3.57,3.37,8.75,8.75,0,0,0-1.76,4v13a19.2,19.2,0,0,0,3.61,5.4,17.51,17.51,0,0,0,5.25,3.81A14.18,14.18,0,0,0,237.43,325.73Z"/><path class="cls-1" d="M307,329.82H301.3V306.16q0-7.16-2.6-10.77a8.67,8.67,0,0,0-7.48-3.62,14.09,14.09,0,0,0-6.35,1.58,18.28,18.28,0,0,0-5.54,4.3,16,16,0,0,0-3.41,6.22v25.95h-5.71V270.08h5.71V297a19.83,19.83,0,0,1,7.27-7.53,19,19,0,0,1,10-2.8,14.43,14.43,0,0,1,6.43,1.3,10.79,10.79,0,0,1,4.29,3.78,17.47,17.47,0,0,1,2.39,5.78A33.06,33.06,0,0,1,307,305Z"/><path class="cls-1" d="M339.63,330.64a21.54,21.54,0,0,1-8.78-1.75,20.88,20.88,0,0,1-6.9-4.8,22.2,22.2,0,0,1-6.09-15.34,22.32,22.32,0,0,1,1.6-8.5,21.93,21.93,0,0,1,28.83-11.81,21.83,21.83,0,0,1,11.43,11.81,22.51,22.51,0,0,1,1.59,8.5,22.09,22.09,0,0,1-6.09,15.34,20.84,20.84,0,0,1-6.89,4.8A21.4,21.4,0,0,1,339.63,330.64Zm-16-21.81a17.33,17.33,0,0,0,2.14,8.57,16.33,16.33,0,0,0,5.76,6.1,15.29,15.29,0,0,0,16,0,16.88,16.88,0,0,0,5.8-6.22,17.59,17.59,0,0,0,2.18-8.65,17.21,17.21,0,0,0-2.18-8.53,17,17,0,0,0-5.8-6.18,14.66,14.66,0,0,0-8-2.27,14.31,14.31,0,0,0-8,2.35,17.31,17.31,0,0,0-5.76,6.22A17.5,17.5,0,0,0,323.66,308.83Z"/><path class="cls-1" d="M393.58,328.11q-.68.24-2.1.9a20.06,20.06,0,0,1-3.44,1.14,18.4,18.4,0,0,1-4.37.49,11.69,11.69,0,0,1-4.58-.9,7.59,7.59,0,0,1-3.41-2.75,8,8,0,0,1-1.26-4.57V291.77h-6.05v-4.42h6.05V273h5.72v14.4h10.08v4.42H380.14v29.11a4.44,4.44,0,0,0,1.72,3.46,5.9,5.9,0,0,0,3.57,1.15,11.38,11.38,0,0,0,4.29-.78,12.83,12.83,0,0,0,2.35-1.11Z"/><path class="cls-1" d="M421.15,330.64a21.58,21.58,0,0,1-8.78-1.75,20.84,20.84,0,0,1-6.89-4.8,22.15,22.15,0,0,1-6.1-15.34,22.32,22.32,0,0,1,1.6-8.5,21.44,21.44,0,0,1,20.17-13.55,21.27,21.27,0,0,1,8.66,1.74,21.83,21.83,0,0,1,11.43,11.81,22.51,22.51,0,0,1,1.59,8.5,22.09,22.09,0,0,1-6.09,15.34,20.84,20.84,0,0,1-6.89,4.8A21.37,21.37,0,0,1,421.15,330.64Zm-16-21.81a17.44,17.44,0,0,0,2.14,8.57,16.33,16.33,0,0,0,5.76,6.1,15.29,15.29,0,0,0,16,0,16.88,16.88,0,0,0,5.8-6.22,17.48,17.48,0,0,0,2.18-8.65,17.34,17.34,0,0,0-8-14.71,14.65,14.65,0,0,0-8-2.27,14.32,14.32,0,0,0-8,2.35,17.31,17.31,0,0,0-5.76,6.22A17.61,17.61,0,0,0,405.18,308.83Z"/><path class="cls-1" d="M471.66,330.64a18.93,18.93,0,0,1-8.24-1.8,20.24,20.24,0,0,1-6.51-4.87,22.94,22.94,0,0,1-5.76-15.1,24.21,24.21,0,0,1,1.47-8.47,22.43,22.43,0,0,1,4.21-7.08,19.89,19.89,0,0,1,6.43-4.87,18.94,18.94,0,0,1,8.23-1.75,17.34,17.34,0,0,1,9.79,2.74,25.78,25.78,0,0,1,7,6.83v-8.92h5.13V330a16.62,16.62,0,0,1-2.9,9.92,17.83,17.83,0,0,1-7.82,6.08,27.87,27.87,0,0,1-10.71,2q-7.49,0-12.11-2.62a22.07,22.07,0,0,1-7.56-7l3.53-2.7a16,16,0,0,0,6.93,6,22.05,22.05,0,0,0,9.21,2,20.26,20.26,0,0,0,7.85-1.49,13.1,13.1,0,0,0,5.72-4.46,12.44,12.44,0,0,0,2.14-7.48V321.8a19.34,19.34,0,0,1-16,8.84Zm1.6-4.66a14.14,14.14,0,0,0,5-.9,17.67,17.67,0,0,0,4.41-2.42,15.86,15.86,0,0,0,3.36-3.39,9.25,9.25,0,0,0,1.68-3.85V302.24a17,17,0,0,0-3.61-5.52,17.44,17.44,0,0,0-5.34-3.76,14.84,14.84,0,0,0-6.18-1.35,14,14,0,0,0-6.59,1.51,15,15,0,0,0-4.88,4,19.09,19.09,0,0,0-3.07,5.61A18.83,18.83,0,0,0,457,309a16.92,16.92,0,0,0,1.26,6.5A18.13,18.13,0,0,0,461.7,321a15.58,15.58,0,0,0,11.56,5Z"/><path class="cls-1" d="M529.57,292.1a18.38,18.38,0,0,0-10.05,3.11,15.65,15.65,0,0,0-6.09,8.1v26.51h-5.71V287.35h5.37v10.07a20.46,20.46,0,0,1,6-7.29,15.19,15.19,0,0,1,7.95-3.11c.55,0,1.05-.08,1.47-.08a6.06,6.06,0,0,1,1.05.08Z"/><path class="cls-1" d="M535.37,317.63a10.51,10.51,0,0,1,2.35-6.87,15,15,0,0,1,6.51-4.47,26.89,26.89,0,0,1,9.63-1.59,46.57,46.57,0,0,1,6.63.49,30.91,30.91,0,0,1,6.14,1.47v-3.59a11.34,11.34,0,0,0-3.28-8.54q-3.27-3.16-9.07-3.17a19.63,19.63,0,0,0-6.94,1.27,34.8,34.8,0,0,0-7.1,3.72l-2.19-3.93a37,37,0,0,1,8.41-4.29,25.26,25.26,0,0,1,8.4-1.43q8.07,0,12.78,4.47t4.71,12.36v19.6a2.31,2.31,0,0,0,.5,1.66,2.38,2.38,0,0,0,1.6.62v4.41c-.62.06-1.15.11-1.6.17a3.32,3.32,0,0,1-1,0,4.27,4.27,0,0,1-4.37-3.93l-.08-3.11a19.26,19.26,0,0,1-7.65,5.69,24.35,24.35,0,0,1-9.58,2,16.37,16.37,0,0,1-7.61-1.75,13.26,13.26,0,0,1-5.29-4.71A12,12,0,0,1,535.37,317.63Zm29.33,3.24a11.18,11.18,0,0,0,1.43-2.19,4.48,4.48,0,0,0,.5-1.86v-6.17A36.24,36.24,0,0,0,560.7,309a33.65,33.65,0,0,0-6.17-.57,18.56,18.56,0,0,0-9.92,2.36,7.21,7.21,0,0,0-3.78,6.4,8.35,8.35,0,0,0,1.26,4.42,9.58,9.58,0,0,0,3.7,3.41,11.7,11.7,0,0,0,5.71,1.34,19.31,19.31,0,0,0,7.69-1.54A14,14,0,0,0,564.7,320.87Z"/><path class="cls-1" d="M608.74,330.64a17.78,17.78,0,0,1-9.79-2.76A21.61,21.61,0,0,1,592.1,321v26.22h-5.72V287.35h5.13v8.3a19.82,19.82,0,0,1,7-6.47,18.57,18.57,0,0,1,9.33-2.48,18.83,18.83,0,0,1,8.32,1.83,21.07,21.07,0,0,1,6.56,4.92,23.22,23.22,0,0,1,4.33,7,22.26,22.26,0,0,1,1.55,8.18,24.31,24.31,0,0,1-2.48,10.94,20.39,20.39,0,0,1-6.93,8A18.16,18.16,0,0,1,608.74,330.64Zm-1.6-4.91a14.28,14.28,0,0,0,6.47-1.42,15.28,15.28,0,0,0,4.92-3.86,17.68,17.68,0,0,0,3.15-5.48,18.47,18.47,0,0,0,1.09-6.3,17.58,17.58,0,0,0-1.22-6.5,16.59,16.59,0,0,0-3.48-5.45,17.59,17.59,0,0,0-5.21-3.73,14.91,14.91,0,0,0-6.39-1.38,13.92,13.92,0,0,0-4.54.81,18.11,18.11,0,0,0-4.5,2.31,15.8,15.8,0,0,0-3.57,3.37,8.75,8.75,0,0,0-1.76,4v13a19.2,19.2,0,0,0,3.61,5.4,17.51,17.51,0,0,0,5.25,3.81A14.18,14.18,0,0,0,607.14,325.73Z"/><path class="cls-1" d="M676.73,329.82H671V306.16q0-7.16-2.6-10.77a8.67,8.67,0,0,0-7.48-3.62,14.09,14.09,0,0,0-6.35,1.58,18.28,18.28,0,0,0-5.54,4.3,16,16,0,0,0-3.41,6.22v25.95h-5.71V270.08h5.71V297a19.83,19.83,0,0,1,7.27-7.53,19,19,0,0,1,10-2.8,14.43,14.43,0,0,1,6.43,1.3,10.79,10.79,0,0,1,4.29,3.78,17.47,17.47,0,0,1,2.39,5.78,33.06,33.06,0,0,1,.76,7.44Z"/><path class="cls-1" d="M693.12,342.92l2.27.12a4.89,4.89,0,0,0,1.59-.12,3.51,3.51,0,0,0,1.94-1.14A15.18,15.18,0,0,0,701.1,338q1.26-2.77,3.53-8.16l-19.08-42.52h6.05l16.06,36.81,14.79-36.81h5.71L705.47,342.2a9.64,9.64,0,0,1-1.76,2.9,8.61,8.61,0,0,1-2.9,2.12,11.51,11.51,0,0,1-4.25.86,11.34,11.34,0,0,1-1.55,0q-.81,0-1.89-.21Z"/><rect class="cls-1" x="14.88" y="207.58" width="915.07" height="3.32"/></g></g></svg>