<svg width="25" height="26" viewBox="0 0 25 26" fill="none" xmlns="http://www.w3.org/2000/svg">
<path d="M12.5 0.5C5.59667 0.5 0 6.09642 0 13C0 19.9036 5.59667 25.5 12.5 25.5C19.4033 25.5 25 19.9036 25 13C25 6.09642 19.4033 0.5 12.5 0.5ZM21.3371 8.88747C21.2588 10.6097 20.0547 12.9691 17.7286 15.9632C15.324 19.0908 13.2887 20.6547 11.623 20.6547C10.5926 20.6547 9.7202 19.7026 9.0069 17.7972C8.53095 16.0512 8.05448 14.3059 7.57877 12.5596C7.05013 10.6552 6.48235 9.70179 5.87468 9.70179C5.77792 9.70179 5.50268 9.8518 5.05008 10.1506C4.73087 10.3614 4.30155 10.2983 4.0672 9.99598C3.83498 9.69643 3.87601 9.26799 4.16003 9.01702C4.85984 8.39864 5.55222 7.77937 6.23529 7.15959C7.40026 6.15371 8.27391 5.62404 8.85729 5.57033C10.234 5.43811 11.0816 6.38031 11.3997 8.39488C11.7435 10.5698 11.9811 11.9225 12.1146 12.4514C12.5113 14.2558 12.9483 15.157 13.4246 15.157C13.7951 15.157 14.3522 14.5711 15.0934 13.4018C15.834 12.2312 16.2309 11.3402 16.2844 10.7297C16.39 9.71918 15.9928 9.21304 15.0934 9.21304C14.5605 9.21304 14.037 8.72359 14.2648 8.24187C15.2081 6.24705 16.709 5.28293 18.7668 5.34859C20.5852 5.40205 21.4417 6.58158 21.3371 8.88747Z" fill="white"/>
</svg>
