<svg width="1920" height="25" viewBox="0 0 1920 25" fill="none" xmlns="http://www.w3.org/2000/svg">
<rect width="1920" height="25" fill="black"/>
<path d="M921.069 17V8.48H924.645C925.029 8.48 925.381 8.56 925.701 8.72C926.021 8.88 926.301 9.092 926.541 9.356C926.781 9.62 926.965 9.916 927.093 10.244C927.221 10.572 927.285 10.908 927.285 11.252C927.285 11.724 927.177 12.176 926.961 12.608C926.753 13.032 926.453 13.376 926.061 13.64C925.677 13.904 925.229 14.036 924.717 14.036H922.413V17H921.069ZM922.413 12.848H924.633C924.889 12.848 925.113 12.78 925.305 12.644C925.497 12.5 925.645 12.308 925.749 12.068C925.861 11.828 925.917 11.556 925.917 11.252C925.917 10.94 925.853 10.664 925.725 10.424C925.597 10.184 925.429 10 925.221 9.872C925.021 9.736 924.801 9.668 924.561 9.668H922.413V12.848ZM932.445 17.06C931.829 17.06 931.273 16.94 930.777 16.7C930.281 16.46 929.853 16.136 929.493 15.728C929.133 15.312 928.853 14.848 928.653 14.336C928.461 13.816 928.365 13.284 928.365 12.74C928.365 12.172 928.469 11.632 928.677 11.12C928.885 10.6 929.173 10.14 929.541 9.74C929.909 9.332 930.341 9.012 930.837 8.78C931.341 8.54 931.885 8.42 932.469 8.42C933.077 8.42 933.629 8.544 934.125 8.792C934.629 9.04 935.057 9.372 935.409 9.788C935.769 10.204 936.045 10.668 936.237 11.18C936.437 11.692 936.537 12.216 936.537 12.752C936.537 13.32 936.433 13.864 936.225 14.384C936.025 14.896 935.741 15.356 935.373 15.764C935.005 16.164 934.569 16.48 934.065 16.712C933.569 16.944 933.029 17.06 932.445 17.06ZM929.733 12.74C929.733 13.14 929.797 13.528 929.925 13.904C930.053 14.28 930.233 14.616 930.465 14.912C930.705 15.2 930.993 15.428 931.329 15.596C931.665 15.764 932.041 15.848 932.457 15.848C932.889 15.848 933.273 15.76 933.609 15.584C933.945 15.408 934.225 15.172 934.449 14.876C934.681 14.572 934.857 14.236 934.977 13.868C935.097 13.492 935.157 13.116 935.157 12.74C935.157 12.34 935.093 11.956 934.965 11.588C934.845 11.212 934.665 10.88 934.425 10.592C934.185 10.296 933.897 10.064 933.561 9.896C933.233 9.728 932.865 9.644 932.457 9.644C932.025 9.644 931.641 9.732 931.305 9.908C930.969 10.084 930.685 10.32 930.453 10.616C930.221 10.912 930.041 11.244 929.913 11.612C929.793 11.98 929.733 12.356 929.733 12.74ZM938.289 17V8.48H939.633V15.812H944.205V17H938.289ZM945.656 17V8.48H947V15.812H951.572V17H945.656ZM953.024 17V8.48H954.368V17H953.024ZM957.998 10.976V17H956.654V8.48H957.758L962.582 14.636V8.492H963.938V17H962.762L957.998 10.976ZM968.673 8.48H969.945L973.257 17H971.841L970.941 14.684H967.653L966.765 17H965.337L968.673 8.48ZM970.677 13.688L969.309 9.956L967.893 13.688H970.677ZM981.835 17V10.928L979.327 15.536H978.535L976.015 10.928V17H974.671V8.48H976.111L978.931 13.688L981.751 8.48H983.191V17H981.835ZM987.932 8.48H989.204L992.516 17H991.1L990.2 14.684H986.912L986.024 17H984.596L987.932 8.48ZM989.936 13.688L988.568 9.956L987.152 13.688H989.936ZM993.93 17V8.492H995.274V12.872L999.282 8.48H1000.77L997.41 12.248L1000.96 17H999.438L996.558 13.1L995.274 14.432V17H993.93Z" fill="#E7BA87"/>
<path d="M639.069 17V8.48H642.645C643.029 8.48 643.381 8.56 643.701 8.72C644.021 8.88 644.301 9.092 644.541 9.356C644.781 9.62 644.965 9.916 645.093 10.244C645.221 10.572 645.285 10.908 645.285 11.252C645.285 11.724 645.177 12.176 644.961 12.608C644.753 13.032 644.453 13.376 644.061 13.64C643.677 13.904 643.229 14.036 642.717 14.036H640.413V17H639.069ZM640.413 12.848H642.633C642.889 12.848 643.113 12.78 643.305 12.644C643.497 12.5 643.645 12.308 643.749 12.068C643.861 11.828 643.917 11.556 643.917 11.252C643.917 10.94 643.853 10.664 643.725 10.424C643.597 10.184 643.429 10 643.221 9.872C643.021 9.736 642.801 9.668 642.561 9.668H640.413V12.848ZM650.445 17.06C649.829 17.06 649.273 16.94 648.777 16.7C648.281 16.46 647.853 16.136 647.493 15.728C647.133 15.312 646.853 14.848 646.653 14.336C646.461 13.816 646.365 13.284 646.365 12.74C646.365 12.172 646.469 11.632 646.677 11.12C646.885 10.6 647.173 10.14 647.541 9.74C647.909 9.332 648.341 9.012 648.837 8.78C649.341 8.54 649.885 8.42 650.469 8.42C651.077 8.42 651.629 8.544 652.125 8.792C652.629 9.04 653.057 9.372 653.409 9.788C653.769 10.204 654.045 10.668 654.237 11.18C654.437 11.692 654.537 12.216 654.537 12.752C654.537 13.32 654.433 13.864 654.225 14.384C654.025 14.896 653.741 15.356 653.373 15.764C653.005 16.164 652.569 16.48 652.065 16.712C651.569 16.944 651.029 17.06 650.445 17.06ZM647.733 12.74C647.733 13.14 647.797 13.528 647.925 13.904C648.053 14.28 648.233 14.616 648.465 14.912C648.705 15.2 648.993 15.428 649.329 15.596C649.665 15.764 650.041 15.848 650.457 15.848C650.889 15.848 651.273 15.76 651.609 15.584C651.945 15.408 652.225 15.172 652.449 14.876C652.681 14.572 652.857 14.236 652.977 13.868C653.097 13.492 653.157 13.116 653.157 12.74C653.157 12.34 653.093 11.956 652.965 11.588C652.845 11.212 652.665 10.88 652.425 10.592C652.185 10.296 651.897 10.064 651.561 9.896C651.233 9.728 650.865 9.644 650.457 9.644C650.025 9.644 649.641 9.732 649.305 9.908C648.969 10.084 648.685 10.32 648.453 10.616C648.221 10.912 648.041 11.244 647.913 11.612C647.793 11.98 647.733 12.356 647.733 12.74ZM656.289 17V8.48H657.633V15.812H662.205V17H656.289ZM663.656 17V8.48H665V15.812H669.572V17H663.656ZM671.024 17V8.48H672.368V17H671.024ZM675.998 10.976V17H674.654V8.48H675.758L680.582 14.636V8.492H681.938V17H680.762L675.998 10.976ZM686.673 8.48H687.945L691.257 17H689.841L688.941 14.684H685.653L684.765 17H683.337L686.673 8.48ZM688.677 13.688L687.309 9.956L685.893 13.688H688.677ZM699.835 17V10.928L697.327 15.536H696.535L694.015 10.928V17H692.671V8.48H694.111L696.931 13.688L699.751 8.48H701.191V17H699.835ZM705.932 8.48H707.204L710.516 17H709.1L708.2 14.684H704.912L704.024 17H702.596L705.932 8.48ZM707.936 13.688L706.568 9.956L705.152 13.688H707.936ZM711.93 17V8.492H713.274V12.872L717.282 8.48H718.77L715.41 12.248L718.962 17H717.438L714.558 13.1L713.274 14.432V17H711.93Z" fill="#E7BA87"/>
<path d="M357.069 17V8.48H360.645C361.029 8.48 361.381 8.56 361.701 8.72C362.021 8.88 362.301 9.092 362.541 9.356C362.781 9.62 362.965 9.916 363.093 10.244C363.221 10.572 363.285 10.908 363.285 11.252C363.285 11.724 363.177 12.176 362.961 12.608C362.753 13.032 362.453 13.376 362.061 13.64C361.677 13.904 361.229 14.036 360.717 14.036H358.413V17H357.069ZM358.413 12.848H360.633C360.889 12.848 361.113 12.78 361.305 12.644C361.497 12.5 361.645 12.308 361.749 12.068C361.861 11.828 361.917 11.556 361.917 11.252C361.917 10.94 361.853 10.664 361.725 10.424C361.597 10.184 361.429 10 361.221 9.872C361.021 9.736 360.801 9.668 360.561 9.668H358.413V12.848ZM368.445 17.06C367.829 17.06 367.273 16.94 366.777 16.7C366.281 16.46 365.853 16.136 365.493 15.728C365.133 15.312 364.853 14.848 364.653 14.336C364.461 13.816 364.365 13.284 364.365 12.74C364.365 12.172 364.469 11.632 364.677 11.12C364.885 10.6 365.173 10.14 365.541 9.74C365.909 9.332 366.341 9.012 366.837 8.78C367.341 8.54 367.885 8.42 368.469 8.42C369.077 8.42 369.629 8.544 370.125 8.792C370.629 9.04 371.057 9.372 371.409 9.788C371.769 10.204 372.045 10.668 372.237 11.18C372.437 11.692 372.537 12.216 372.537 12.752C372.537 13.32 372.433 13.864 372.225 14.384C372.025 14.896 371.741 15.356 371.373 15.764C371.005 16.164 370.569 16.48 370.065 16.712C369.569 16.944 369.029 17.06 368.445 17.06ZM365.733 12.74C365.733 13.14 365.797 13.528 365.925 13.904C366.053 14.28 366.233 14.616 366.465 14.912C366.705 15.2 366.993 15.428 367.329 15.596C367.665 15.764 368.041 15.848 368.457 15.848C368.889 15.848 369.273 15.76 369.609 15.584C369.945 15.408 370.225 15.172 370.449 14.876C370.681 14.572 370.857 14.236 370.977 13.868C371.097 13.492 371.157 13.116 371.157 12.74C371.157 12.34 371.093 11.956 370.965 11.588C370.845 11.212 370.665 10.88 370.425 10.592C370.185 10.296 369.897 10.064 369.561 9.896C369.233 9.728 368.865 9.644 368.457 9.644C368.025 9.644 367.641 9.732 367.305 9.908C366.969 10.084 366.685 10.32 366.453 10.616C366.221 10.912 366.041 11.244 365.913 11.612C365.793 11.98 365.733 12.356 365.733 12.74ZM374.289 17V8.48H375.633V15.812H380.205V17H374.289ZM381.656 17V8.48H383V15.812H387.572V17H381.656ZM389.024 17V8.48H390.368V17H389.024ZM393.998 10.976V17H392.654V8.48H393.758L398.582 14.636V8.492H399.938V17H398.762L393.998 10.976ZM404.673 8.48H405.945L409.257 17H407.841L406.941 14.684H403.653L402.765 17H401.337L404.673 8.48ZM406.677 13.688L405.309 9.956L403.893 13.688H406.677ZM417.835 17V10.928L415.327 15.536H414.535L412.015 10.928V17H410.671V8.48H412.111L414.931 13.688L417.751 8.48H419.191V17H417.835ZM423.932 8.48H425.204L428.516 17H427.1L426.2 14.684H422.912L422.024 17H420.596L423.932 8.48ZM425.936 13.688L424.568 9.956L423.152 13.688H425.936ZM429.93 17V8.492H431.274V12.872L435.282 8.48H436.77L433.41 12.248L436.962 17H435.438L432.558 13.1L431.274 14.432V17H429.93Z" fill="#E7BA87"/>
<path d="M1203.07 17V8.48H1206.64C1207.03 8.48 1207.38 8.56 1207.7 8.72C1208.02 8.88 1208.3 9.092 1208.54 9.356C1208.78 9.62 1208.96 9.916 1209.09 10.244C1209.22 10.572 1209.28 10.908 1209.28 11.252C1209.28 11.724 1209.18 12.176 1208.96 12.608C1208.75 13.032 1208.45 13.376 1208.06 13.64C1207.68 13.904 1207.23 14.036 1206.72 14.036H1204.41V17H1203.07ZM1204.41 12.848H1206.63C1206.89 12.848 1207.11 12.78 1207.3 12.644C1207.5 12.5 1207.64 12.308 1207.75 12.068C1207.86 11.828 1207.92 11.556 1207.92 11.252C1207.92 10.94 1207.85 10.664 1207.72 10.424C1207.6 10.184 1207.43 10 1207.22 9.872C1207.02 9.736 1206.8 9.668 1206.56 9.668H1204.41V12.848ZM1214.45 17.06C1213.83 17.06 1213.27 16.94 1212.78 16.7C1212.28 16.46 1211.85 16.136 1211.49 15.728C1211.13 15.312 1210.85 14.848 1210.65 14.336C1210.46 13.816 1210.37 13.284 1210.37 12.74C1210.37 12.172 1210.47 11.632 1210.68 11.12C1210.89 10.6 1211.17 10.14 1211.54 9.74C1211.91 9.332 1212.34 9.012 1212.84 8.78C1213.34 8.54 1213.89 8.42 1214.47 8.42C1215.08 8.42 1215.63 8.544 1216.13 8.792C1216.63 9.04 1217.06 9.372 1217.41 9.788C1217.77 10.204 1218.05 10.668 1218.24 11.18C1218.44 11.692 1218.54 12.216 1218.54 12.752C1218.54 13.32 1218.43 13.864 1218.23 14.384C1218.03 14.896 1217.74 15.356 1217.37 15.764C1217.01 16.164 1216.57 16.48 1216.07 16.712C1215.57 16.944 1215.03 17.06 1214.45 17.06ZM1211.73 12.74C1211.73 13.14 1211.8 13.528 1211.93 13.904C1212.05 14.28 1212.23 14.616 1212.47 14.912C1212.71 15.2 1212.99 15.428 1213.33 15.596C1213.67 15.764 1214.04 15.848 1214.46 15.848C1214.89 15.848 1215.27 15.76 1215.61 15.584C1215.95 15.408 1216.23 15.172 1216.45 14.876C1216.68 14.572 1216.86 14.236 1216.98 13.868C1217.1 13.492 1217.16 13.116 1217.16 12.74C1217.16 12.34 1217.09 11.956 1216.97 11.588C1216.85 11.212 1216.67 10.88 1216.43 10.592C1216.19 10.296 1215.9 10.064 1215.56 9.896C1215.23 9.728 1214.87 9.644 1214.46 9.644C1214.03 9.644 1213.64 9.732 1213.31 9.908C1212.97 10.084 1212.69 10.32 1212.45 10.616C1212.22 10.912 1212.04 11.244 1211.91 11.612C1211.79 11.98 1211.73 12.356 1211.73 12.74ZM1220.29 17V8.48H1221.63V15.812H1226.2V17H1220.29ZM1227.66 17V8.48H1229V15.812H1233.57V17H1227.66ZM1235.02 17V8.48H1236.37V17H1235.02ZM1240 10.976V17H1238.65V8.48H1239.76L1244.58 14.636V8.492H1245.94V17H1244.76L1240 10.976ZM1250.67 8.48H1251.94L1255.26 17H1253.84L1252.94 14.684H1249.65L1248.76 17H1247.34L1250.67 8.48ZM1252.68 13.688L1251.31 9.956L1249.89 13.688H1252.68ZM1263.83 17V10.928L1261.33 15.536H1260.53L1258.01 10.928V17H1256.67V8.48H1258.11L1260.93 13.688L1263.75 8.48H1265.19V17H1263.83ZM1269.93 8.48H1271.2L1274.52 17H1273.1L1272.2 14.684H1268.91L1268.02 17H1266.6L1269.93 8.48ZM1271.94 13.688L1270.57 9.956L1269.15 13.688H1271.94ZM1275.93 17V8.492H1277.27V12.872L1281.28 8.48H1282.77L1279.41 12.248L1282.96 17H1281.44L1278.56 13.1L1277.27 14.432V17H1275.93Z" fill="#E7BA87"/>
<path d="M1485.07 17V8.48H1488.64C1489.03 8.48 1489.38 8.56 1489.7 8.72C1490.02 8.88 1490.3 9.092 1490.54 9.356C1490.78 9.62 1490.96 9.916 1491.09 10.244C1491.22 10.572 1491.28 10.908 1491.28 11.252C1491.28 11.724 1491.18 12.176 1490.96 12.608C1490.75 13.032 1490.45 13.376 1490.06 13.64C1489.68 13.904 1489.23 14.036 1488.72 14.036H1486.41V17H1485.07ZM1486.41 12.848H1488.63C1488.89 12.848 1489.11 12.78 1489.3 12.644C1489.5 12.5 1489.64 12.308 1489.75 12.068C1489.86 11.828 1489.92 11.556 1489.92 11.252C1489.92 10.94 1489.85 10.664 1489.72 10.424C1489.6 10.184 1489.43 10 1489.22 9.872C1489.02 9.736 1488.8 9.668 1488.56 9.668H1486.41V12.848ZM1496.45 17.06C1495.83 17.06 1495.27 16.94 1494.78 16.7C1494.28 16.46 1493.85 16.136 1493.49 15.728C1493.13 15.312 1492.85 14.848 1492.65 14.336C1492.46 13.816 1492.37 13.284 1492.37 12.74C1492.37 12.172 1492.47 11.632 1492.68 11.12C1492.89 10.6 1493.17 10.14 1493.54 9.74C1493.91 9.332 1494.34 9.012 1494.84 8.78C1495.34 8.54 1495.89 8.42 1496.47 8.42C1497.08 8.42 1497.63 8.544 1498.13 8.792C1498.63 9.04 1499.06 9.372 1499.41 9.788C1499.77 10.204 1500.05 10.668 1500.24 11.18C1500.44 11.692 1500.54 12.216 1500.54 12.752C1500.54 13.32 1500.43 13.864 1500.23 14.384C1500.03 14.896 1499.74 15.356 1499.37 15.764C1499.01 16.164 1498.57 16.48 1498.07 16.712C1497.57 16.944 1497.03 17.06 1496.45 17.06ZM1493.73 12.74C1493.73 13.14 1493.8 13.528 1493.93 13.904C1494.05 14.28 1494.23 14.616 1494.47 14.912C1494.71 15.2 1494.99 15.428 1495.33 15.596C1495.67 15.764 1496.04 15.848 1496.46 15.848C1496.89 15.848 1497.27 15.76 1497.61 15.584C1497.95 15.408 1498.23 15.172 1498.45 14.876C1498.68 14.572 1498.86 14.236 1498.98 13.868C1499.1 13.492 1499.16 13.116 1499.16 12.74C1499.16 12.34 1499.09 11.956 1498.97 11.588C1498.85 11.212 1498.67 10.88 1498.43 10.592C1498.19 10.296 1497.9 10.064 1497.56 9.896C1497.23 9.728 1496.87 9.644 1496.46 9.644C1496.03 9.644 1495.64 9.732 1495.31 9.908C1494.97 10.084 1494.69 10.32 1494.45 10.616C1494.22 10.912 1494.04 11.244 1493.91 11.612C1493.79 11.98 1493.73 12.356 1493.73 12.74ZM1502.29 17V8.48H1503.63V15.812H1508.2V17H1502.29ZM1509.66 17V8.48H1511V15.812H1515.57V17H1509.66ZM1517.02 17V8.48H1518.37V17H1517.02ZM1522 10.976V17H1520.65V8.48H1521.76L1526.58 14.636V8.492H1527.94V17H1526.76L1522 10.976ZM1532.67 8.48H1533.94L1537.26 17H1535.84L1534.94 14.684H1531.65L1530.76 17H1529.34L1532.67 8.48ZM1534.68 13.688L1533.31 9.956L1531.89 13.688H1534.68ZM1545.83 17V10.928L1543.33 15.536H1542.53L1540.01 10.928V17H1538.67V8.48H1540.11L1542.93 13.688L1545.75 8.48H1547.19V17H1545.83ZM1551.93 8.48H1553.2L1556.52 17H1555.1L1554.2 14.684H1550.91L1550.02 17H1548.6L1551.93 8.48ZM1553.94 13.688L1552.57 9.956L1551.15 13.688H1553.94ZM1557.93 17V8.492H1559.27V12.872L1563.28 8.48H1564.77L1561.41 12.248L1564.96 17H1563.44L1560.56 13.1L1559.27 14.432V17H1557.93Z" fill="#E7BA87"/>
<path d="M1767.07 17V8.48H1770.64C1771.03 8.48 1771.38 8.56 1771.7 8.72C1772.02 8.88 1772.3 9.092 1772.54 9.356C1772.78 9.62 1772.96 9.916 1773.09 10.244C1773.22 10.572 1773.28 10.908 1773.28 11.252C1773.28 11.724 1773.18 12.176 1772.96 12.608C1772.75 13.032 1772.45 13.376 1772.06 13.64C1771.68 13.904 1771.23 14.036 1770.72 14.036H1768.41V17H1767.07ZM1768.41 12.848H1770.63C1770.89 12.848 1771.11 12.78 1771.3 12.644C1771.5 12.5 1771.64 12.308 1771.75 12.068C1771.86 11.828 1771.92 11.556 1771.92 11.252C1771.92 10.94 1771.85 10.664 1771.72 10.424C1771.6 10.184 1771.43 10 1771.22 9.872C1771.02 9.736 1770.8 9.668 1770.56 9.668H1768.41V12.848ZM1778.45 17.06C1777.83 17.06 1777.27 16.94 1776.78 16.7C1776.28 16.46 1775.85 16.136 1775.49 15.728C1775.13 15.312 1774.85 14.848 1774.65 14.336C1774.46 13.816 1774.37 13.284 1774.37 12.74C1774.37 12.172 1774.47 11.632 1774.68 11.12C1774.89 10.6 1775.17 10.14 1775.54 9.74C1775.91 9.332 1776.34 9.012 1776.84 8.78C1777.34 8.54 1777.89 8.42 1778.47 8.42C1779.08 8.42 1779.63 8.544 1780.13 8.792C1780.63 9.04 1781.06 9.372 1781.41 9.788C1781.77 10.204 1782.05 10.668 1782.24 11.18C1782.44 11.692 1782.54 12.216 1782.54 12.752C1782.54 13.32 1782.43 13.864 1782.23 14.384C1782.03 14.896 1781.74 15.356 1781.37 15.764C1781.01 16.164 1780.57 16.48 1780.07 16.712C1779.57 16.944 1779.03 17.06 1778.45 17.06ZM1775.73 12.74C1775.73 13.14 1775.8 13.528 1775.93 13.904C1776.05 14.28 1776.23 14.616 1776.47 14.912C1776.71 15.2 1776.99 15.428 1777.33 15.596C1777.67 15.764 1778.04 15.848 1778.46 15.848C1778.89 15.848 1779.27 15.76 1779.61 15.584C1779.95 15.408 1780.23 15.172 1780.45 14.876C1780.68 14.572 1780.86 14.236 1780.98 13.868C1781.1 13.492 1781.16 13.116 1781.16 12.74C1781.16 12.34 1781.09 11.956 1780.97 11.588C1780.85 11.212 1780.67 10.88 1780.43 10.592C1780.19 10.296 1779.9 10.064 1779.56 9.896C1779.23 9.728 1778.87 9.644 1778.46 9.644C1778.03 9.644 1777.64 9.732 1777.31 9.908C1776.97 10.084 1776.69 10.32 1776.45 10.616C1776.22 10.912 1776.04 11.244 1775.91 11.612C1775.79 11.98 1775.73 12.356 1775.73 12.74ZM1784.29 17V8.48H1785.63V15.812H1790.2V17H1784.29ZM1791.66 17V8.48H1793V15.812H1797.57V17H1791.66ZM1799.02 17V8.48H1800.37V17H1799.02ZM1804 10.976V17H1802.65V8.48H1803.76L1808.58 14.636V8.492H1809.94V17H1808.76L1804 10.976ZM1814.67 8.48H1815.94L1819.26 17H1817.84L1816.94 14.684H1813.65L1812.76 17H1811.34L1814.67 8.48ZM1816.68 13.688L1815.31 9.956L1813.89 13.688H1816.68ZM1827.83 17V10.928L1825.33 15.536H1824.53L1822.01 10.928V17H1820.67V8.48H1822.11L1824.93 13.688L1827.75 8.48H1829.19V17H1827.83ZM1833.93 8.48H1835.2L1838.52 17H1837.1L1836.2 14.684H1832.91L1832.02 17H1830.6L1833.93 8.48ZM1835.94 13.688L1834.57 9.956L1833.15 13.688H1835.94ZM1839.93 17V8.492H1841.27V12.872L1845.28 8.48H1846.77L1843.41 12.248L1846.96 17H1845.44L1842.56 13.1L1841.27 14.432V17H1839.93Z" fill="#E7BA87"/>
<path d="M75.0685 17V8.48H78.6445C79.0285 8.48 79.3805 8.56 79.7005 8.72C80.0205 8.88 80.3005 9.092 80.5405 9.356C80.7805 9.62 80.9645 9.916 81.0925 10.244C81.2205 10.572 81.2845 10.908 81.2845 11.252C81.2845 11.724 81.1765 12.176 80.9605 12.608C80.7525 13.032 80.4525 13.376 80.0605 13.64C79.6765 13.904 79.2285 14.036 78.7165 14.036H76.4125V17H75.0685ZM76.4125 12.848H78.6325C78.8885 12.848 79.1125 12.78 79.3045 12.644C79.4965 12.5 79.6445 12.308 79.7485 12.068C79.8605 11.828 79.9165 11.556 79.9165 11.252C79.9165 10.94 79.8525 10.664 79.7245 10.424C79.5965 10.184 79.4285 10 79.2205 9.872C79.0205 9.736 78.8005 9.668 78.5605 9.668H76.4125V12.848ZM86.4451 17.06C85.8291 17.06 85.2731 16.94 84.7771 16.7C84.2811 16.46 83.8531 16.136 83.4931 15.728C83.1331 15.312 82.8531 14.848 82.6531 14.336C82.4611 13.816 82.3651 13.284 82.3651 12.74C82.3651 12.172 82.4691 11.632 82.6771 11.12C82.8851 10.6 83.1731 10.14 83.5411 9.74C83.9091 9.332 84.3411 9.012 84.8371 8.78C85.3411 8.54 85.8851 8.42 86.4691 8.42C87.0771 8.42 87.6291 8.544 88.1251 8.792C88.6291 9.04 89.0571 9.372 89.4091 9.788C89.7691 10.204 90.0451 10.668 90.2371 11.18C90.4371 11.692 90.5371 12.216 90.5371 12.752C90.5371 13.32 90.4331 13.864 90.2251 14.384C90.0251 14.896 89.7411 15.356 89.3731 15.764C89.0051 16.164 88.5691 16.48 88.0651 16.712C87.5691 16.944 87.0291 17.06 86.4451 17.06ZM83.7331 12.74C83.7331 13.14 83.7971 13.528 83.9251 13.904C84.0531 14.28 84.2331 14.616 84.4651 14.912C84.7051 15.2 84.9931 15.428 85.3291 15.596C85.6651 15.764 86.0411 15.848 86.4571 15.848C86.8891 15.848 87.2731 15.76 87.6091 15.584C87.9451 15.408 88.2251 15.172 88.4491 14.876C88.6811 14.572 88.8571 14.236 88.9771 13.868C89.0971 13.492 89.1571 13.116 89.1571 12.74C89.1571 12.34 89.0931 11.956 88.9651 11.588C88.8451 11.212 88.6651 10.88 88.4251 10.592C88.1851 10.296 87.8971 10.064 87.5611 9.896C87.2331 9.728 86.8651 9.644 86.4571 9.644C86.0251 9.644 85.6411 9.732 85.3051 9.908C84.9691 10.084 84.6851 10.32 84.4531 10.616C84.2211 10.912 84.0411 11.244 83.9131 11.612C83.7931 11.98 83.7331 12.356 83.7331 12.74ZM92.2885 17V8.48H93.6325V15.812H98.2045V17H92.2885ZM99.6563 17V8.48H101V15.812H105.572V17H99.6563ZM107.024 17V8.48H108.368V17H107.024ZM111.998 10.976V17H110.654V8.48H111.758L116.582 14.636V8.492H117.938V17H116.762L111.998 10.976ZM122.673 8.48H123.945L127.257 17H125.841L124.941 14.684H121.653L120.765 17H119.337L122.673 8.48ZM124.677 13.688L123.309 9.956L121.893 13.688H124.677ZM135.835 17V10.928L133.327 15.536H132.535L130.015 10.928V17H128.671V8.48H130.111L132.931 13.688L135.751 8.48H137.191V17H135.835ZM141.932 8.48H143.204L146.516 17H145.1L144.2 14.684H140.912L140.024 17H138.596L141.932 8.48ZM143.936 13.688L142.568 9.956L141.152 13.688H143.936ZM147.93 17V8.492H149.274V12.872L153.282 8.48H154.77L151.41 12.248L154.962 17H153.438L150.558 13.1L149.274 14.432V17H147.93Z" fill="#E7BA87"/>
</svg>
